<svg width="74" height="21" viewBox="0 0 74 21" fill="none" xmlns="http://www.w3.org/2000/svg">
<path d="M61.2852 9.07963V12.9367H67.7835V14.6356C66.4104 15.8507 64.5076 16.3081 62.0979 16.3081C57.3379 16.3081 54.6491 14.286 54.6491 10.5631C54.6491 6.86669 57.2538 4.84462 62.0138 4.84462C64.6472 4.84462 66.4104 5.49093 68.0914 6.94795L72.2643 3.98099C70.2199 2.146 66.7183 0.5 61.8742 0.5C55.7564 0.5 51.4057 2.62601 49.6787 6.46228V0.811815H43.6011L36.1791 10.1115L28.8144 0.811815H22.5685V6.65881C20.9582 2.79042 16.7834 0.596379 10.9793 0.596379H0.0288086V20.511H10.9793C16.7834 20.511 20.9582 18.3169 22.5685 14.4485V20.511H28.0857V7.81536L35.8998 17.2794H36.1791L43.9932 7.81536V20.511H49.6787V14.664C51.4057 18.4983 55.7564 20.6243 61.8742 20.6243C67.1123 20.6243 70.9753 18.9519 73.0771 16.4441V9.07963H61.2852ZM10.5318 15.9018H5.74308V5.20368H10.5318C14.7333 5.20368 17.4776 7.02543 17.4776 10.5537C17.4776 14.08 14.7333 15.9018 10.5318 15.9018Z" fill="white"/>
</svg>
